<svg xmlns="http://www.w3.org/2000/svg" fill="#8075ff" width="512" height="512" viewBox="0 0 135.47 135.47"><path d="M32.33.17a2.77 2.77 0 0 0-1.97.82l-8.65 8.7a2.77 2.77 0 0 0 0 3.94l21.04 20.9a2.77 2.77 0 0 0 3.93 0l3.6-3.62a8.36 8.36 0 0 1 4.1-1.3c9.38-.25 21.7.1 28.11.14 1.4.01 3.13 1.05 4.02 1.68l3.08 3.1a2.77 2.77 0 0 0 3.93.01l21.03-20.91a2.77 2.77 0 0 0 .01-3.93L105.95 1A2.77 2.77 0 0 0 102 .97L86.72 16.2c-1 .8-2.57 1.84-4 1.93-5.42.33-8.66.26-14.05.22-6.71-.04-13.14.12-15.9-.36a6.4 6.4 0 0 1-2.43-1.11L34.3.99a2.77 2.77 0 0 0-1.97-.8zm0 135.2a2.77 2.77 0 0 1-1.97-.83l-8.65-8.7a2.77 2.77 0 0 1 0-3.93L42.76 101a2.77 2.77 0 0 1 3.93 0l3.6 3.63c.96.6 2.41 1.26 4.1 1.3 9.38.25 21.7-.11 28.11-.15 1.41 0 3.16-1.04 4.05-1.68l3.08-3.1a2.77 2.77 0 0 1 3.93 0l21.03 20.9a2.77 2.77 0 0 1 .01 3.94l-8.65 8.7a2.77 2.77 0 0 1-3.93 0l-15.3-15.2c-1-.8-2.58-1.84-4-1.93-5.43-.33-8.67-.26-14.06-.23-6.7.05-13.14-.12-15.89.36a6.4 6.4 0 0 0-2.44 1.07l-16.04 15.94a2.77 2.77 0 0 1-1.96.8zM.29 32.2a2.77 2.77 0 0 1 .82-1.96l8.75-8.65a2.77 2.77 0 0 1 3.93 0l20.91 21.04a2.77 2.77 0 0 1 0 3.93l-3.63 3.6a8.36 8.36 0 0 0-1.3 4.1c-.25 9.37.1 21.7.14 28.11.01 1.42 1.05 3.17 1.68 4.06l3.1 3.08a2.77 2.77 0 0 1 .01 3.93l-20.91 21.03a2.77 2.77 0 0 1-3.93 0l-8.7-8.64a2.77 2.77 0 0 1-.02-3.94l15.23-15.3c.8-1 1.84-2.57 1.93-4 .33-5.42.26-8.66.22-14.05-.03-6.7.13-13.14-.34-15.9a6.4 6.4 0 0 0-1.07-2.43L1.1 34.17a2.77 2.77 0 0 1-.8-1.97zm135.2 0a2.77 2.77 0 0 0-.83-1.96l-8.7-8.65a2.77 2.77 0 0 0-3.93 0l-20.91 21.04a2.77 2.77 0 0 0 0 3.93l3.63 3.6c.6.96 1.26 2.41 1.3 4.1.25 9.38-.11 21.7-.15 28.11 0 1.42-1.04 3.17-1.67 4.06l-3.1 3.08a2.77 2.77 0 0 0-.01 3.93l20.9 21.03a2.77 2.77 0 0 0 3.94.01l8.7-8.65a2.77 2.77 0 0 0 0-3.93l-15.2-15.3c-.8-1-1.84-2.58-1.93-4-.33-5.43-.26-8.67-.23-14.06.05-6.71-.11-13.14.36-15.9a6.4 6.4 0 0 1 1.07-2.43l15.94-16.04a2.77 2.77 0 0 0 .8-1.96z"/></svg>