<svg xmlns="http://www.w3.org/2000/svg" fill="currentColor" fill-rule="evenodd" stroke-linejoin="round" stroke-miterlimit="2" clip-rule="evenodd" color="#5EEB5B" preserveAspectRatio="none" viewBox="0 0 298000 24000"><path d="M3383 15846a31917 31917 0 00 3957-505c6 94 8 191 6 295a21164 21164 0 01-3963 210zm3592 3837-387 53c-310-32-651-67-988-106 293-68 586-133 879-197 255-25 510-51 764-84-80 137-170 249-268 334zm-3760-6418a25114 25114 0 01 2906-294h86c57 132 106 267 147 401-1040 57-2088 12-3139-107zm2015-2168c77 160 161 318 249 478-282-3-561-13-842-9a91459 91459 0 01-1815-87 32313 32313 0 01 2408-390zm1316-3549a1930 1930 0 00-21 178c-1021 45-2043 94-3064 140-53-20-107-37-159-58 1075-154 2158-219 3244-260zM293490 4020c-4484-278 4076-556 8-829 10494-278-383-554 8-826-4521-280-5395-560 8-832-27-15-34-30-35-45h-11744v-355c-67 120-133 251-198 355h-9826a3823 3823 0 00-220 111 5628 5628 0 00-950 0 5360 5360 0 00-1080-9 5435 5435 0 00-1080-9 5450 5450 0 00-1070-8 5347 5347 0 00-1086-8 5360 5360 0 00-1080-8 5370 5370 0 00-1081-8 5445 5445 0 00-1081-8 5357 5357 0 00-1080-7 5360 5360 0 00-1080-8 5370 5370 0 00-1081-8 5374 5374 0 00-1074-8 5350 5350 0 00-1086-9 5435 5435 0 00-1080-8 5431 5431 0 00-1080-7 5360 5360 0 00-1080-8 5360 5360 0 00-1080-8 5370 5370 0 00-1080-8 5450 5450 0 00-1074-8 5357 5357 0 00-1087-8 5360 5360 0 00-1080-8 5360 5360 0 00-1080-8 5361 5361 0 00-1080-8 5445 5445 0 00-1080-8 5357 5357 0 00-1081-7 5360 5360 0 00-1080-8 5454 5454 0 00-1073-9 5430 5430 0 00-1086-8 5445 5445 0 00-1081-8 5357 5357 0 00-1081-7 5360 5360 0 00-1080-8 5360 5360 0 00-1080-8 5360 5360 0 00-1080-8 5360 5360 0 00-1080-8 5451 5451 0 00-1073-8 5347 5347 0 00-1086-8 5370 5370 0 00-1081-8 5360 5360 0 00-1080-8 5370 5370 0 00-1081-8 5445 5445 0 00-1081-8 5357 5357 0 00-1080-7 5360 5360 0 00-1080-8 5444 5444 0 00-1073-9 5430 5430 0 00-1086-8 5435 5435 0 00-1080-8 5357 5357 0 00-1080-7 5360 5360 0 00-1080-8 5360 5360 0 00-1080-8 5361 5361 0 00-1080-8 5470 5470 0 00-1076-8 5356 5356 0 00-1087-8 5360 5360 0 00-1081-8 5360 5360 0 00-1080-8 5360 5360 0 00-1080-8 5360 5360 0 00-1080-8 5435 5435 0 00-1080-8 5432 5432 0 00-1080-7 5455 5455 0 00-1072-9 5347 5347 0 00-1086-8 5370 5370 0 00-1081-8 5445 5445 0 00-1081-8 5357 5357 0 00-1081-7 5360 5360 0 00-1080-8 5360 5360 0 00-1080-8 5370 5370 0 00-1080-8 5450 5450 0 00-1074-8 5347 5347 0 00-1086-8 5360 5360 0 00-1080-8 5360 5360 0 00-1080-8A5360 5360 0 00 196000 1050a5445 5445 0 00-1080-8 5367 5367 0 00-1081-7 5368 5368 0 00-1073-9 5357 5357 0 00-1087-8 5360 5360 0 00-1080-8 5361 5361 0 00-1080-8 5435 5435 0 00-1080-8 5442 5442 0 00-1081-7 5360 5360 0 00-1080-8 5360 5360 0 00-1080-8 5460 5460 0 00-1075-8 5433 5433 0 00-1087-9 5357 5357 0 00-1080-7 5360 5360 0 00-1080-8 5360 5360 0 00-1080-8 5360 5360 0 00-1080 0 5435 5435 0 00-1080-9 5367 5367 0 00-1081-7 5369 5369 0 00-1073-10 5348 5348 0 00-1086-7 5361 5361 0 00-1080-8 5456 5456 0 00-1082-8 5367 5367 0 00-1081-7 5360 5360 0 00-1080-8 5360 5360 0 00-1080-8 5360 5360 0 00-1080-8 5450 5450 0 00-1074-8 5424 5424 0 00-1086-9 5432 5432 0 00-1080-7 5360 5360 0 00-1080-8 5360 5360 0 00-1080-5 5370 5370 0 00-1081-9 5445 5445 0 00-1082-9 5450 5450 0 00-1074-7A5347 5347 0 00 158190 780a5370 5370 0 00-1080-8 5360 5360 0 00-1080-8 5435 5435 0 00-1080-8 5357 5357 0 00-1080-7 5360 5360 0 00-1080-8 5361 5361 0 00-1080-8 5375 5375 0 00-1074-8 5434 5434 0 00-1087-10 5367 5367 0 00-1080-6 5360 5360 0 00-1080-10 5360 5360 0 00-1081-7 5360 5360 0 00-1080-8 5361 5361 0 00-1080-7 5445 5445 0 00-1081-8 5450 5450 0 00-1074-8 5347 5347 0 00-1086-8 5360 5360 0 00-1080-8 5360 5360 0 00-1080-8 5445 5445 0 00-1081-8 5367 5367 0 00-1081-7 5360 5360 0 00-1080-8 5444 5444 0 00-1073-10 5430 5430 0 00-1087-7 5435 5435 0 00-1080-8 5357 5357 0 00-1080-7 5361 5361 0 00-1080-8 5370 5370 0 00-1081-8 5360 5360 0 00-1080-6 5445 5445 0 00-1080-8 5450 5450 0 00-1074-10 5356 5356 0 00-1090-10 5360 5360 0 00-1080-7 5360 5360 0 00-1080-8 5360 5360 0 00-1080-8 5435 5435 0 00-1080-10 5432 5432 0 00-1080-9 5361 5361 0 00-1080-7 5375 5375 0 00-1077-8 5351 5351 0 00-1086-10 5445 5445 0 00-1080-5 5377 5377 0 00-1083-7 5360 5360 0 00-1080-8 5360 5360 0 00-1080-8 5360 5360 0 00-1080-8 5435 5435 0 00-1080-8A5450 5450 0 00 108500 410a5347 5347 0 00-1086-10 5361 5361 0 00-1080-6 5361 5361 0 00-1080-8 5445 5445 0 00-1080-8 5367 5367 0 00-1082-7 5360 5360 0 00-1080-8 5454 5454 0 00-1074-10 5347 5347 0 00-1087-7 5370 5370 0 00-1080-8 5435 5435 0 00-1080-8 5432 5432 0 00-1080-7 5360 5360 0 00-1080-8 5360 5360 0 00-1080-8A5361 5361 0 00 93372 300a5461 5461 0 00-1075-10A5357 5357 0 00 91210 280a5360 5360 0 00-1080-8 5360 5360 0 00-1080-8 5360 5360 0 00-1080-8 5435 5435 0 00-1080-8 5357 5357 0 00-1080-7 5370 5370 0 00-1080-9 5454 5454 0 00-1074-10 5413 5413 0 00-1093-6 5450 5450 0 00-1074-8A5445 5445 0 00 80408 200 5512 5512 0 00 79320 193a5426 5426 0 00-1072-7 5360 5360 0 00-1080-8A5363 5363 0 00 76080 170a5430 5430 0 00-1072-7A5437 5437 0 00 73920 156a5352 5352 0 00-1072-7 5361 5361 0 00-1080-8A5364 5364 0 00 70680 134a5450 5450 0 00-1074-8 5437 5437 0 00-1088-7 5361 5361 0 00-1073-7 5360 5360 0 00-1080-8 5440 5440 0 00-1088-8 5504 5504 0 00-1072-7 5437 5437 0 00-1088-7 5352 5352 0 00-1072-7 5361 5361 0 00-1080-8 5440 5440 0 00-1088-8A5437 5437 0 00 58804 40a5370 5370 0 00-1080-8A5436 5436 0 00 56635 30a5351 5351 0 00-1072 0 5440 5440 0 00-1088-8 5437 5437 0 00-1073-7 5360 5360 0 00-1080-8A5437 5437 0 00 51234 0a5430 5430 0 00-1072-8 5432 5432 0 00-1080-7 5377 5377 0 00-1089-8A5437 5437 0 00 46920-30a5390 5390 0 00-1199 1 5565 5565 0 00-1266 25 5598 5598 0 00-1079 36 5587 5587 0 00-1085 36 5565 5565 0 00-1075 35 5604 5604 0 00-1079 35 5568 5568 0 00-1084 36 5654 5654 0 00-1076 35 5693 5693 0 00-1080 35 5532 5532 0 00-1080 36 5563 5563 0 00-1083 36 5576 5576 0 00-1076 35 5615 5615 0 00-1080 35 5574 5574 0 00-1084 36 5643 5643 0 00-1075 35 5612 5612 0 00-1080 35 5637 5637 0 00-1083 37 5573 5573 0 00-1076 35A5601 5601 0 00 26100 600a5609 5609 0 00-1080 35 5584 5584 0 00-1084 36 5646 5646 0 00-1075 35 5535 5535 0 00-1080 36 5568 5568 0 00-1084 36 5562 5562 0 00-1075 35 5612 5612 0 00-1080 35 5560 5560 0 00-1083 36 5654 5654 0 00-1080 36 5615 5615 0 00-1080 35 5598 5598 0 00-1080 36 5587 5587 0 00-1090 36 5576 5576 0 00-1076 35c-244-14-463 10-690 22-80-92-185-165-305-164-2948 28-5817 331-8665 998H67c-545 0-545 810 0 810h598c31 177 170 335 402 331 96 0 192-7 287-9a368 368 0 00 379 325c407 4 811 11 1214 18a67610 67610 0 01-4214 534c-517 52-542 794 0 791a55285 55285 0 00 2190-56c15 6 20 22 39 26 53 13 106 22 160 35-190 193-83 591 279 637l99 12a307 307 0 00-136 250H402c-431 0-523 608-103 723a25400 25400 0 00 3475 678 18780 18780 0 00-1816 283c-292 63-356 443-137 620-476 13-952 32-1428 36-487 4-488 730 0 725 96 0 192-3 287-4A34580 34580 0 00 2838 9000c-849 71-1696 170-2540 317-350 62-356 627 0 683a27100 27100 0 00 1463 190c-73 174-10 406 210 458 290 66 571 118 854 165-729 140-1456 312-2177 530-387 117-282 609 90 642 456 40 913 66 1370 98a250 250 0 00 210 210c82 15 166 23 250 40l-1830 6c-428 0-428 638 0 637h780c-67 18-133 27-200 45-297 80-330 547 0 607 920 166 1845 287 2766 350-987 137-1977 262-2972 375-457 4-914 6-1373 6-337 0-374 400-147 537-312 48-623 93-935 142-324 53-263 486 0 573 954 312 1916 530 2882 668a61910 61910 0 01-2800 86c-396 3-396 590 0 587 242-1 480-17 723-21-45 146 0 312 195 342 28 5 55 7 80 10 1251 196 2501 290 3747 314-23 83-15 169 40 233-1083 230-2153 504-3200 887-315 116-260 538 80 560 1053 68 2083 24 3101-86-88 155 8 398 232 395h43c44 157 311 270 666 350 140 47 277 88 414 130-324 98-576 220-569 360a4186 4186 0 01-597 84c-183 26-130 303 43 303 691-2 1375-36 2063-63a1733 1733 0 00-82 336c-119 3-239 2-359 3-358-130-585-125-686 8-313 2-624 8-937 8-295 0-295 437 0 439 372 2 743 8 1111 14l282 39c-140 53-283 94-423 150-100 2-200 10-302 12-310 8-312 468 0 464 90 0 178-10 268-12 23 5 37 23 64 20 188 0 370-30 556-40v10c88 0 175-20 263-21 388-20 780-40 1164-72 2 104-7 220-34 353 700 336 1413 340 2098 234 367 37 730 20 1084-35 364 37 723 20 1076-35 366 37 726 20 1081-36 366 38 728 20 1083-36 364 36 724 20 1078-36 363 37 724 20 1080-35 363 39 724 20 1078-33 366 37 728 20 1084-35a4250 4250 0 00 1076-35c364 37 725 19 1080-36 365 38 727 20 1082-35 362 36 722 20 1075-36 370 37 730 20 1083-35 366 38 730 20 1083-34 365 37 724 19 1078-35a4240 4240 0 00 1080-36c363 38 724 20 1080-35 363 37 725 20 1080-36 364 36 723 20 1077-36 364 38 725 20 1080-34 365 38 728 20 1082-34 364 37 724 19 1077-35 364 37 726 19 1079-36 366 38 730 20 1084-36 362 37 720 20 1074-35a4200 4200 0 00 1080-35c363 37 724 20 1080-35 364 37 726 20 1082-35 363 37 722 19 1076-35 365 37 725 19 1080-36 365 37 727 20 1082-36 364 37 725 20 1078-35 363 37 725 20 1080-35 330 34 658 25 983-20a3990 3990 0 00 1030 2 3970 3970 0 00 1083 9c363 52 723 52 1078 6a3910 3910 0 00 1080 8c364 54 727 54 1083 7 362 52 723 52 1077 7 363 52 725 53 1080 7 367 54 730 53 1086 8a3920 3920 0 00 1075 7 3900 3900 0 00 1084 7c363 53 723 53 1077 8 364 52 726 53 1080 7 365 54 728 53 1085 8 362 54 722 54 1077 8 363 54 724 54 1080 8a3900 3900 0 00 1084 7c362 52 723 52 1077 8 365 53 728 52 1084 7a3920 3920 0 00 1076 6 3910 3910 0 00 1080 8 3900 3900 0 00 1084 7c363 53 723 53 1077 8 365 54 728 53 1084 8 360 53 720 53 1075 7 364 53 725 53 1080 7a3900 3900 0 00 1084 7c362 53 722 53 1077 8 364 53 726 52 1084 8 360 52 722 52 1076 6a3910 3910 0 00 1080 8 3900 3900 0 00 1085 7 3960 3960 0 00 1077 8 3950 3950 0 00 1080 8c366 55 730 54 1086 9 360 53 720 53 1073 8a3900 3900 0 00 1084 9c364 53 725 54 1080 8a3950 3950 0 00 1080 8 4030 4030 0 00 1080 8c365 52 727 53 1080 7a3950 3950 0 00 1080 8 3950 3950 0 00 1080 8 3910 3910 0 00 1080 9c364 54 728 54 1084 9 363 53 725 53 1080 7a3910 3910 0 00 1080 8 3910 3910 0 00 1080 10 3910 3910 0 00 1080 8 3910 3910 0 00 1080 8c366 53 728 53 1080 7 366 53 726 53 1080 8a3930 3930 0 00 1083 8c363 53 725 54 1080 8a3910 3910 0 00 1080 9c365 52 726 53 1082 7 363 50 724 52 1080 6 363 53 724 54 1080 8a3920 3920 0 00 1076 9 3900 3900 0 00 1085 9 3980 3980 0 00 1078 8c363 53 726 53 1080 7a3910 3910 0 00 1080 7 3910 3910 0 00 1080 7 3910 3910 0 00 1080 8c366 54 727 54 1083 9 360 53 723 53 1077 8 365 54 727 54 1084 8a3940 3940 0 00 1078 8c363 53 724 54 1080 8 363 53 724 54 1080 8 363 52 725 53 1080 7 363 53 726 54 1080 8 363 53 726 54 1080 8 363 55 724 56 1077 10a3900 3900 0 00 1085 9c364 53 725 53 1079 7a3910 3910 0 00 1080 8 3910 3910 0 00 1080 8 3910 3910 0 00 1079 8 3910 3910 0 00 1080 8c363 53 725 53 1079 8 364 53 724 53 1078 8a3930 3930 0 00 1083 8c363 53 725 54 1080 8a3950 3950 0 00 1080 8c365 52 727 53 1082 8 363 52 725 53 1080 7 363 52 725 53 1080 7a3920 3920 0 00 1076 9 3900 3900 0 00 1084 9 3910 3910 0 00 1080 8c364 53 726 53 1080 7a3910 3910 0 00 1080 7 3910 3910 0 00 1080 7 3910 3910 0 00 1081 8 3910 3910 0 00 1080 8c362 54 723 54 1077 9 365 54 727 54 1084 8a3910 3910 0 00 1080 9c361 52 723 53 1080 7 361 53 723 54 1080 8 361 52 724 53 1080 8 363 52 724 53 1080 7 363 53 724 54 1080 8 362 53 722 54 1076 8a3900 3900 0 00 1084 10c363 53 724 53 1080 8 363 53 725 53 1081 7 363 54 724 54 1080 8 363 54 724 54 1080 8 363 54 724 54 1080 8a3920 3920 0 00 1075 9c364 53 728 53 1084 7 363 53 725 54 1080 8 363 53 725 54 1080 8 362 53 724 54 1080 8a3910 3910 0 00 1080 9c363 52 725 53 1080 7 365 52 726 53 1081 7 362 53 723 54 1077 8a3900 3900 0 00 1084 10c362 54 724 54 1080 8a3980 3980 0 00 1080 8c361 53 723 53 1080 7 362 54 722 54 1080 8a3910 3910 0 00 1080 8c361 54 723 54 1080 8a3960 3960 0 00 1076 10 3970 3970 0 00 1083 7c365 50 726 52 1081 6 364 53 725 54 1080 8 364 53 725 54 1080 8 363 53 724 54 1080 8 363 52 725 53 1081 7 365 53 726 54 1082 8a3920 3920 0 00 1076 8 3900 3900 0 00 1084 9c363 54 724 54 1080 8 363 54 725 54 1081 8a3910 3910 0 00 1080 8 3910 3910 0 00 1080 9 3910 3910 0 00 1080 8 3920 3920 0 00 1075 9c370 53 732 53 1087 8 364 52 726 53 1081 7 364 53 725 54 1080 8 364 53 725 54 1081 8 363 53 724 54 1080 8 362 52 723 53 1080 8 362 52 724 53 1080 7a3920 3920 0 00 1076 7 3900 3900 0 00 1085 9 3910 3910 0 00 1080 8 3910 3910 0 00 1080 8c361 53 724 53 1080 7a3910 3910 0 00 1080 8 3910 3910 0 00 1080 8 3910 3910 0 00 1080 9 3820 3820 0 00 1077 10c364 53 727 53 1084 7 363 53 724 54 1080 8a3910 3910 0 00 1080 9c363 52 724 53 1080 7 363 53 724 54 1080 8 363 52 724 53 1080 8 362 52 724 53 1077 7a3900 3900 0 00 1084 9 3910 3910 0 00 1080 8 3910 3910 0 00 1080 9c360 54 721 54 1080 9 360 53 722 53 1080 7a3910 3910 0 00 1080 8 3910 3910 0 00 1080 8 3920 3920 0 00 1074 9c364 54 727 54 1084 8 363 52 724 53 1080 7 363 53 725 54 1081 8 363 53 724 54 1080 8 362 53 723 54 1080 8 362 53 724 54 1080 8 361 52 723 53 1080 7 360 49 722 50 1075 5a3900 3900 0 00 1084 9 3910 3910 0 00 1080 8 3910 3910 0 00 1080 8c363 53 724 53 1080 8 363 53 725 53 1080 7 365 54 726 54 1082 8 363 54 724 54 1080 8a3920 3920 0 00 1076 9c366 53 728 53 1085 8 363 52 725 53 1081 7 363 53 724 54 1080 8 363 53 725 54 1080 8 362 53 724 54 1080 8 362 53 724 54 1080 8 361 52 722 53 1076 7a3900 3900 0 00 1084 9 3910 3910 0 00 1080 8 3910 3910 0 00 1080 9c364 55 725 55 1081 9 363 53 724 53 1080 7 363 54 725 54 1081 8 363 54 724 54 1080 8a3920 3920 0 00 1076 9c364 54 727 54 1084 8a4030 4030 0 00 1080 8c363 52 726 53 1081 7a3990 3990 0 00 1000 12c55 30 117 62 188 92h21831a1550 1550 0 00 248-145c-13494-281 3090-555 7-830 6900-278-2210-555 10-825 6674-281 2624-560 8-833 5551-278 3543-556 8-830-8339-277-5420-556 10-828 3630-280-3140-556 6-830-9122-280-4332-556 8-828 1272-280-13349-557 8-830-3728-277-5662-554 8-826 9574-280 3881-557 8-832-2070-278-7390-556 8-830 9195-277 4993-555 7-827 11805-280 8952-558 8-828-14138-280 13665-558 10-830 3620-280-11198-557 7-828-2514-280-6704-557 8-830 582-278 1350-555 8-826-10300-280-9196-558 10-832-3622-280 7337-556 7-830-6410-276 2572-553 8-827-5888-280-3677-556 8-830 11135-278-11475-555 7-828 20104-280 10642-556 8-830" fill="currentColor" fill-rule="nonzero"/></svg>
